<svg width="27" height="27" viewBox="0 0 27 27" fill="none" xmlns="http://www.w3.org/2000/svg">
<path fill-rule="evenodd" clip-rule="evenodd" d="M18.405 15.405L27 24L24.765 26.235L16.17 17.64C14.565 18.795 12.63 19.5 10.515 19.5C5.13001 19.5 0.765015 15.135 0.765015 9.75C0.765015 4.365 5.13001 0 10.515 0C15.9 0 20.265 4.365 20.265 9.75C20.265 11.865 19.56 13.8 18.405 15.405ZM10.515 3C6.78002 3 3.76501 6.015 3.76501 9.75C3.76501 13.485 6.78002 16.5 10.515 16.5C14.25 16.5 17.265 13.485 17.265 9.75C17.265 6.015 14.25 3 10.515 3Z" fill="white"/>
</svg>
